<svg xmlns="http://www.w3.org/2000/svg" xmlns:xlink="http://www.w3.org/1999/xlink" width="500" zoomAndPan="magnify" viewBox="0 0 375 149.999998" height="200" preserveAspectRatio="xMidYMid meet" version="1.0"><defs><g/><clipPath id="id1"><path d="M 84 21 L 134.25 21 L 134.25 58 L 84 58 Z M 84 21 " clip-rule="nonzero"/></clipPath><clipPath id="id2"><path d="M 29 15 L 121 15 L 121 134.25 L 29 134.25 Z M 29 15 " clip-rule="nonzero"/></clipPath></defs><g fill="#009ffe" fill-opacity="1"><g transform="translate(152.025801, 64.636156)"><g><path d="M 1.707031 -12.175781 C 2.277344 -5.519531 6.601562 0.96875 19.117188 0.96875 C 31.917969 0.96875 36.582031 -4.265625 36.582031 -11.71875 C 36.582031 -18.71875 32.882812 -22.929688 24.066406 -23.667969 L 17.523438 -24.238281 C 14.792969 -24.464844 13.769531 -25.714844 13.769531 -27.367188 C 13.769531 -29.414062 15.929688 -30.550781 19.058594 -30.550781 C 22.585938 -30.550781 24.636719 -28.957031 24.976562 -26.457031 L 36.242188 -26.457031 C 35.785156 -33.113281 31.007812 -38.746094 19.003906 -38.746094 C 7.851562 -38.746094 2.277344 -33.851562 2.277344 -26.511719 C 2.277344 -19.914062 6.371094 -15.875 13.371094 -15.132812 L 21.390625 -14.28125 C 23.78125 -13.996094 25.089844 -12.972656 25.089844 -10.808594 C 25.089844 -8.589844 23.210938 -7.226562 19.34375 -7.226562 C 14.792969 -7.226562 13.140625 -9.898438 12.800781 -12.175781 Z M 1.707031 -12.175781 "/></g></g></g><g fill="#009ffe" fill-opacity="1"><g transform="translate(192.703322, 64.636156)"><g><path d="M 26.855469 -28.84375 L 26.855469 -37.835938 L 2.84375 -37.835938 L 2.84375 -28.84375 L 9.160156 -28.84375 L 9.160156 -8.988281 L 2.84375 -8.988281 L 2.84375 0 L 26.855469 0 L 26.855469 -8.988281 L 20.539062 -8.988281 L 20.539062 -28.84375 Z M 26.855469 -28.84375 "/></g></g></g><g fill="#009ffe" fill-opacity="1"><g transform="translate(224.676523, 64.636156)"><g><path d="M 19.683594 0.910156 C 28.332031 0.910156 31.292969 -3.015625 32.65625 -6.542969 L 32.65625 0 L 42.101562 0 L 42.101562 -21.335938 L 20.3125 -21.335938 L 20.3125 -14.394531 L 31.292969 -14.394531 C 30.722656 -10.640625 28.730469 -7.792969 22.585938 -7.792969 C 16.726562 -7.792969 13.882812 -11.433594 13.882812 -18.832031 C 13.882812 -26.96875 17.464844 -30.039062 23.441406 -30.039062 C 27.992188 -30.039062 30.496094 -27.878906 30.777344 -25.546875 L 42.15625 -25.546875 C 41.816406 -32.371094 36.867188 -38.746094 23.269531 -38.746094 C 8.136719 -38.746094 1.992188 -29.753906 1.992188 -18.886719 C 1.992188 -8.25 7.453125 0.910156 19.683594 0.910156 Z M 19.683594 0.910156 "/></g></g></g><g fill="#009ffe" fill-opacity="1"><g transform="translate(272.237863, 64.636156)"><g><path d="M 2.558594 -14.566406 C 2.558594 -4.210938 8.761719 0.910156 20.765625 0.910156 C 32.828125 0.910156 38.972656 -4.265625 38.972656 -14.566406 L 38.972656 -37.835938 L 27.59375 -37.835938 L 27.59375 -16.042969 C 27.59375 -10.242188 25.546875 -8.363281 20.765625 -8.363281 C 16.042969 -8.363281 13.996094 -10.242188 13.996094 -16.042969 L 13.996094 -37.835938 L 2.558594 -37.835938 Z M 2.558594 -14.566406 "/></g></g></g><g fill="#009ffe" fill-opacity="1"><g transform="translate(316.044399, 64.636156)"><g><path d="M 32.714844 0 L 44.148438 0 L 31.574219 -37.835938 L 13.996094 -37.835938 L 1.421875 0 L 12.859375 0 L 15.019531 -6.484375 L 30.550781 -6.484375 Z M 17.863281 -15.019531 L 22.757812 -29.8125 L 27.707031 -15.019531 Z M 17.863281 -15.019531 "/></g></g></g><g fill="#009ffe" fill-opacity="1"><g transform="translate(158.0864, 98.475443)"><g><path d="M 2.015625 0 L 2.015625 -19.046875 L 4.6875 -19.046875 L 11.546875 -5.765625 L 18.34375 -19.046875 L 21.046875 -19.046875 L 21.046875 0 L 18.75 0 L 18.75 -14.96875 L 12.390625 -2.71875 L 10.671875 -2.71875 L 4.296875 -14.9375 L 4.296875 0 Z M 2.015625 0 "/></g></g></g><g fill="#009ffe" fill-opacity="1"><g transform="translate(191.40994, 98.475443)"><g><path d="M 2.015625 0 L 2.015625 -19.046875 L 13.796875 -19.046875 L 13.796875 -17.171875 L 4.296875 -17.171875 L 4.296875 -10.53125 L 12.984375 -10.53125 L 12.984375 -8.6875 L 4.296875 -8.6875 L 4.296875 -1.875 L 13.796875 -1.875 L 13.796875 0 Z M 2.015625 0 "/></g></g></g><g fill="#009ffe" fill-opacity="1"><g transform="translate(217.029478, 98.475443)"><g><path d="M 2.015625 0 L 2.015625 -19.046875 L 7.859375 -19.046875 C 11.222656 -19.046875 13.695312 -18.191406 15.28125 -16.484375 C 16.875 -14.785156 17.671875 -12.445312 17.671875 -9.46875 C 17.671875 -6.550781 16.875 -4.242188 15.28125 -2.546875 C 13.695312 -0.847656 11.222656 0 7.859375 0 Z M 4.296875 -1.90625 L 7.8125 -1.90625 C 9.664062 -1.90625 11.140625 -2.207031 12.234375 -2.8125 C 13.328125 -3.425781 14.109375 -4.296875 14.578125 -5.421875 C 15.054688 -6.554688 15.296875 -7.90625 15.296875 -9.46875 C 15.296875 -11.070312 15.054688 -12.441406 14.578125 -13.578125 C 14.109375 -14.722656 13.328125 -15.601562 12.234375 -16.21875 C 11.140625 -16.832031 9.664062 -17.140625 7.8125 -17.140625 L 4.296875 -17.140625 Z M 4.296875 -1.90625 "/></g></g></g><g fill="#009ffe" fill-opacity="1"><g transform="translate(246.242403, 98.475443)"><g><path d="M 2.015625 0 L 2.015625 -19.046875 L 4.296875 -19.046875 L 4.296875 0 Z M 2.015625 0 "/></g></g></g><g fill="#009ffe" fill-opacity="1"><g transform="translate(262.824027, 98.475443)"><g><path d="M 10.375 0.328125 C 8.5 0.328125 6.882812 -0.0820312 5.53125 -0.90625 C 4.1875 -1.738281 3.140625 -2.894531 2.390625 -4.375 C 1.648438 -5.851562 1.28125 -7.570312 1.28125 -9.53125 C 1.28125 -11.46875 1.648438 -13.175781 2.390625 -14.65625 C 3.140625 -16.132812 4.1875 -17.289062 5.53125 -18.125 C 6.882812 -18.957031 8.5 -19.375 10.375 -19.375 C 12.550781 -19.375 14.320312 -18.851562 15.6875 -17.8125 C 17.0625 -16.769531 17.9375 -15.316406 18.3125 -13.453125 L 15.78125 -13.453125 C 15.488281 -14.628906 14.894531 -15.570312 14 -16.28125 C 13.101562 -17 11.894531 -17.359375 10.375 -17.359375 C 9.007812 -17.359375 7.816406 -17.046875 6.796875 -16.421875 C 5.785156 -15.796875 5.003906 -14.894531 4.453125 -13.71875 C 3.898438 -12.550781 3.625 -11.15625 3.625 -9.53125 C 3.625 -7.894531 3.898438 -6.488281 4.453125 -5.3125 C 5.003906 -4.144531 5.785156 -3.25 6.796875 -2.625 C 7.816406 -2 9.007812 -1.6875 10.375 -1.6875 C 11.894531 -1.6875 13.101562 -2.035156 14 -2.734375 C 14.894531 -3.429688 15.488281 -4.363281 15.78125 -5.53125 L 18.3125 -5.53125 C 17.9375 -3.695312 17.0625 -2.257812 15.6875 -1.21875 C 14.320312 -0.1875 12.550781 0.328125 10.375 0.328125 Z M 10.375 0.328125 "/></g></g></g><g fill="#009ffe" fill-opacity="1"><g transform="translate(292.69029, 98.475443)"><g><path d="M 0.8125 0 L 7.84375 -19.046875 L 10.265625 -19.046875 L 17.25 0 L 14.828125 0 L 13.09375 -4.90625 L 4.984375 -4.90625 L 3.21875 0 Z M 5.65625 -6.75 L 12.40625 -6.75 L 9.03125 -16.171875 Z M 5.65625 -6.75 "/></g></g></g><g fill="#009ffe" fill-opacity="1"><g transform="translate(321.032085, 98.475443)"><g><path d="M 2.015625 0 L 2.015625 -19.046875 L 4.296875 -19.046875 L 4.296875 -1.828125 L 13.171875 -1.828125 L 13.171875 0 Z M 2.015625 0 "/></g></g></g><g fill="#009ffe" fill-opacity="1"><g transform="translate(158.0864, 127.725441)"><g><path d="M 10.375 0.328125 C 8.5 0.328125 6.882812 -0.0820312 5.53125 -0.90625 C 4.1875 -1.738281 3.140625 -2.894531 2.390625 -4.375 C 1.648438 -5.851562 1.28125 -7.570312 1.28125 -9.53125 C 1.28125 -11.46875 1.648438 -13.175781 2.390625 -14.65625 C 3.140625 -16.132812 4.1875 -17.289062 5.53125 -18.125 C 6.882812 -18.957031 8.5 -19.375 10.375 -19.375 C 12.550781 -19.375 14.320312 -18.851562 15.6875 -17.8125 C 17.0625 -16.769531 17.9375 -15.316406 18.3125 -13.453125 L 15.78125 -13.453125 C 15.488281 -14.628906 14.894531 -15.570312 14 -16.28125 C 13.101562 -17 11.894531 -17.359375 10.375 -17.359375 C 9.007812 -17.359375 7.816406 -17.046875 6.796875 -16.421875 C 5.785156 -15.796875 5.003906 -14.894531 4.453125 -13.71875 C 3.898438 -12.550781 3.625 -11.15625 3.625 -9.53125 C 3.625 -7.894531 3.898438 -6.488281 4.453125 -5.3125 C 5.003906 -4.144531 5.785156 -3.25 6.796875 -2.625 C 7.816406 -2 9.007812 -1.6875 10.375 -1.6875 C 11.894531 -1.6875 13.101562 -2.035156 14 -2.734375 C 14.894531 -3.429688 15.488281 -4.363281 15.78125 -5.53125 L 18.3125 -5.53125 C 17.9375 -3.695312 17.0625 -2.257812 15.6875 -1.21875 C 14.320312 -0.1875 12.550781 0.328125 10.375 0.328125 Z M 10.375 0.328125 "/></g></g></g><g fill="#009ffe" fill-opacity="1"><g transform="translate(187.952668, 127.725441)"><g><path d="M 2.015625 0 L 2.015625 -19.046875 L 4.296875 -19.046875 L 4.296875 -1.828125 L 13.171875 -1.828125 L 13.171875 0 Z M 2.015625 0 "/></g></g></g><g fill="#009ffe" fill-opacity="1"><g transform="translate(212.510527, 127.725441)"><g><path d="M 2.015625 0 L 2.015625 -19.046875 L 4.296875 -19.046875 L 4.296875 0 Z M 2.015625 0 "/></g></g></g><g fill="#009ffe" fill-opacity="1"><g transform="translate(229.09215, 127.725441)"><g><path d="M 2.015625 0 L 2.015625 -19.046875 L 4.296875 -19.046875 L 14.453125 -3.78125 L 14.453125 -19.046875 L 16.734375 -19.046875 L 16.734375 0 L 14.453125 0 L 4.296875 -15.265625 L 4.296875 0 Z M 2.015625 0 "/></g></g></g><g fill="#009ffe" fill-opacity="1"><g transform="translate(258.11452, 127.725441)"><g><path d="M 2.015625 0 L 2.015625 -19.046875 L 4.296875 -19.046875 L 4.296875 0 Z M 2.015625 0 "/></g></g></g><g fill="#009ffe" fill-opacity="1"><g transform="translate(274.69615, 127.725441)"><g><path d="M 10.375 0.328125 C 8.5 0.328125 6.882812 -0.0820312 5.53125 -0.90625 C 4.1875 -1.738281 3.140625 -2.894531 2.390625 -4.375 C 1.648438 -5.851562 1.28125 -7.570312 1.28125 -9.53125 C 1.28125 -11.46875 1.648438 -13.175781 2.390625 -14.65625 C 3.140625 -16.132812 4.1875 -17.289062 5.53125 -18.125 C 6.882812 -18.957031 8.5 -19.375 10.375 -19.375 C 12.550781 -19.375 14.320312 -18.851562 15.6875 -17.8125 C 17.0625 -16.769531 17.9375 -15.316406 18.3125 -13.453125 L 15.78125 -13.453125 C 15.488281 -14.628906 14.894531 -15.570312 14 -16.28125 C 13.101562 -17 11.894531 -17.359375 10.375 -17.359375 C 9.007812 -17.359375 7.816406 -17.046875 6.796875 -16.421875 C 5.785156 -15.796875 5.003906 -14.894531 4.453125 -13.71875 C 3.898438 -12.550781 3.625 -11.15625 3.625 -9.53125 C 3.625 -7.894531 3.898438 -6.488281 4.453125 -5.3125 C 5.003906 -4.144531 5.785156 -3.25 6.796875 -2.625 C 7.816406 -2 9.007812 -1.6875 10.375 -1.6875 C 11.894531 -1.6875 13.101562 -2.035156 14 -2.734375 C 14.894531 -3.429688 15.488281 -4.363281 15.78125 -5.53125 L 18.3125 -5.53125 C 17.9375 -3.695312 17.0625 -2.257812 15.6875 -1.21875 C 14.320312 -0.1875 12.550781 0.328125 10.375 0.328125 Z M 10.375 0.328125 "/></g></g></g><g clip-path="url(#id1)"><path fill="#009ffe" d="M 133.972656 26.101562 C 133.511719 23.277344 130.894531 21.140625 127.898438 21.140625 L 99.039062 21.140625 C 94.828125 21.140625 91.058594 23.949219 89.667969 28.136719 C 88.800781 30.726562 87.253906 33.074219 85.1875 34.914062 C 84.375 35.648438 84.304688 36.894531 85.03125 37.714844 C 85.761719 38.527344 87.011719 38.597656 87.832031 37.871094 C 90.410156 35.5625 92.34375 32.632812 93.421875 29.382812 C 94.285156 26.78125 96.492188 25.101562 99.039062 25.101562 L 127.898438 25.101562 C 128.960938 25.101562 129.914062 25.820312 130.058594 26.734375 C 130.160156 27.339844 130.003906 27.910156 129.617188 28.367188 C 129.246094 28.808594 128.691406 29.0625 128.109375 29.0625 L 116.222656 29.0625 C 115.132812 29.0625 114.242188 29.953125 114.242188 31.046875 C 114.242188 32.136719 115.132812 33.027344 116.222656 33.027344 C 116.804688 33.027344 117.359375 33.28125 117.734375 33.722656 C 118.121094 34.179688 118.273438 34.75 118.171875 35.355469 C 118.027344 36.269531 117.074219 36.988281 116.015625 36.988281 L 104.339844 36.988281 C 103.246094 36.988281 102.359375 37.878906 102.359375 38.96875 C 102.359375 40.058594 103.246094 40.949219 104.339844 40.949219 C 104.917969 40.949219 105.476562 41.207031 105.847656 41.644531 C 106.234375 42.101562 106.390625 42.675781 106.289062 43.277344 C 106.140625 44.191406 105.191406 44.910156 104.128906 44.910156 L 92.453125 44.910156 C 91.679688 44.910156 90.984375 45.359375 90.65625 46.058594 C 90.332031 46.753906 90.441406 47.582031 90.9375 48.167969 C 91.453125 48.78125 91.648438 49.578125 91.453125 50.351562 C 91.277344 51.132812 90.75 51.75 90.015625 52.0625 L 85.738281 53.878906 C 84.730469 54.3125 84.257812 55.472656 84.683594 56.480469 C 85.007812 57.230469 85.738281 57.6875 86.511719 57.6875 C 86.773438 57.6875 87.035156 57.632812 87.285156 57.53125 L 91.5625 55.714844 C 93.464844 54.902344 94.835938 53.285156 95.316406 51.273438 C 95.5 50.46875 95.539062 49.65625 95.433594 48.875 L 104.128906 48.875 C 107.125 48.875 109.738281 46.738281 110.203125 43.914062 C 110.367188 42.898438 110.273438 41.886719 109.941406 40.949219 L 116.015625 40.949219 C 119.007812 40.949219 121.625 38.8125 122.089844 35.988281 C 122.25 34.976562 122.160156 33.960938 121.824219 33.027344 L 128.109375 33.027344 C 129.859375 33.027344 131.507812 32.261719 132.636719 30.929688 C 133.765625 29.597656 134.253906 27.839844 133.972656 26.101562 " fill-opacity="1" fill-rule="nonzero"/></g><path fill="#009ffe" d="M 39.308594 40.949219 C 38.976562 41.886719 38.882812 42.898438 39.046875 43.914062 C 39.511719 46.738281 42.125 48.875 45.121094 48.875 L 53.816406 48.875 C 53.710938 49.65625 53.75 50.46875 53.933594 51.273438 C 54.414062 53.285156 55.785156 54.902344 57.6875 55.714844 L 61.964844 57.53125 C 62.214844 57.632812 62.476562 57.6875 62.738281 57.6875 C 63.511719 57.6875 64.242188 57.230469 64.566406 56.480469 C 64.992188 55.472656 64.519531 54.3125 63.511719 53.878906 L 59.234375 52.070312 C 58.5 51.75 57.972656 51.132812 57.796875 50.351562 C 57.601562 49.578125 57.796875 48.78125 58.3125 48.167969 C 58.808594 47.582031 58.917969 46.753906 58.59375 46.058594 C 58.265625 45.359375 57.570312 44.910156 56.796875 44.910156 L 45.121094 44.910156 C 44.058594 44.910156 43.109375 44.191406 42.960938 43.277344 C 42.859375 42.675781 43.015625 42.101562 43.402344 41.644531 C 43.773438 41.207031 44.332031 40.949219 44.910156 40.949219 C 46.003906 40.949219 46.890625 40.058594 46.890625 38.96875 C 46.890625 37.878906 46.003906 36.988281 44.910156 36.988281 L 33.234375 36.988281 C 32.175781 36.988281 31.222656 36.269531 31.078125 35.355469 C 30.976562 34.75 31.128906 34.179688 31.515625 33.722656 C 31.890625 33.28125 32.445312 33.027344 33.027344 33.027344 C 34.117188 33.027344 35.007812 32.136719 35.007812 31.046875 C 35.007812 29.953125 34.117188 29.0625 33.027344 29.0625 L 21.140625 29.0625 C 20.558594 29.0625 20.003906 28.808594 19.632812 28.367188 C 19.246094 27.910156 19.089844 27.339844 19.191406 26.734375 C 19.335938 25.820312 20.289062 25.101562 21.351562 25.101562 L 50.210938 25.101562 C 52.757812 25.101562 54.964844 26.78125 55.828125 29.382812 C 56.90625 32.632812 58.839844 35.5625 61.417969 37.871094 C 62.238281 38.597656 63.488281 38.527344 64.21875 37.714844 C 64.945312 36.894531 64.875 35.648438 64.0625 34.914062 C 61.996094 33.074219 60.449219 30.726562 59.582031 28.128906 C 58.191406 23.949219 54.421875 21.140625 50.210938 21.140625 L 21.351562 21.140625 C 18.355469 21.140625 15.738281 23.277344 15.277344 26.101562 C 14.996094 27.839844 15.484375 29.597656 16.613281 30.929688 C 17.742188 32.261719 19.390625 33.027344 21.140625 33.027344 L 27.425781 33.027344 C 27.089844 33.960938 27 34.976562 27.160156 35.988281 C 27.625 38.8125 30.242188 40.949219 33.234375 40.949219 L 39.308594 40.949219 " fill-opacity="1" fill-rule="nonzero"/><g clip-path="url(#id2)"><path fill="#009ffe" d="M 113.429688 81.519531 C 111.550781 83.460938 109.019531 84.53125 106.320312 84.53125 L 58.777344 84.53125 C 57.027344 84.53125 55.382812 85.296875 54.25 86.625 C 53.121094 87.957031 52.632812 89.714844 52.914062 91.453125 C 53.285156 93.730469 55.054688 95.53125 57.292969 96.160156 C 57.105469 96.328125 56.921875 96.484375 56.75 96.664062 C 55.921875 97.511719 55.234375 98.457031 54.660156 99.464844 C 51.070312 97.832031 48.757812 94.21875 48.882812 90.164062 C 49.035156 84.871094 53.703125 80.566406 59.28125 80.566406 L 106.320312 80.566406 C 108.066406 80.566406 109.714844 79.800781 110.847656 78.472656 C 111.976562 77.140625 112.464844 75.382812 112.183594 73.640625 C 111.71875 70.816406 109.105469 68.683594 106.109375 68.683594 L 92.453125 68.683594 C 91.363281 68.683594 90.472656 67.792969 90.472656 66.703125 C 90.472656 65.609375 91.363281 64.71875 92.453125 64.71875 L 105.816406 64.71875 C 111.394531 64.71875 116.0625 69.023438 116.214844 74.316406 C 116.300781 77.023438 115.3125 79.585938 113.429688 81.519531 Z M 100.367188 90.164062 C 100.453125 92.871094 99.464844 95.433594 97.582031 97.367188 C 95.703125 99.308594 93.171875 100.375 90.472656 100.375 L 66.910156 100.375 C 63.914062 100.375 61.300781 102.511719 60.835938 105.335938 C 60.558594 107.078125 61.046875 108.835938 62.175781 110.164062 C 63.304688 111.496094 64.953125 112.261719 66.703125 112.261719 L 74.625 112.261719 C 75.714844 112.261719 76.605469 113.152344 76.605469 114.242188 C 76.605469 115.332031 75.714844 116.222656 74.625 116.222656 L 67.203125 116.222656 C 61.625 116.222656 56.960938 111.921875 56.804688 106.628906 C 56.71875 103.921875 57.710938 101.359375 59.589844 99.425781 C 61.46875 97.484375 64 96.414062 66.703125 96.414062 L 90.261719 96.414062 C 93.257812 96.414062 95.875 94.277344 96.335938 91.453125 C 96.5 90.441406 96.375 89.425781 96.042969 88.492188 L 100.152344 88.492188 C 100.277344 89.046875 100.351562 89.605469 100.367188 90.164062 Z M 92.445312 106.628906 C 92.289062 111.921875 87.625 116.222656 82.046875 116.222656 L 80.203125 116.222656 C 80.421875 115.597656 80.566406 114.9375 80.566406 114.242188 C 80.566406 113.546875 80.421875 112.890625 80.203125 112.261719 L 82.546875 112.261719 C 84.296875 112.261719 85.945312 111.496094 87.074219 110.164062 C 88.203125 108.835938 88.691406 107.078125 88.414062 105.335938 C 88.351562 104.988281 88.265625 104.65625 88.152344 104.339844 L 90.472656 104.339844 C 91.050781 104.339844 91.632812 104.292969 92.199219 104.222656 C 92.367188 105.003906 92.476562 105.800781 92.445312 106.628906 Z M 82.339844 104.339844 C 83.398438 104.339844 84.351562 105.058594 84.5 105.972656 C 84.597656 106.574219 84.445312 107.148438 84.058594 107.605469 C 83.6875 108.042969 83.128906 108.300781 82.546875 108.300781 L 80.566406 108.300781 L 80.566406 104.339844 Z M 72.644531 108.300781 L 72.644531 104.339844 L 76.605469 104.339844 L 76.605469 108.300781 Z M 66.703125 108.300781 C 66.121094 108.300781 65.5625 108.042969 65.191406 107.605469 C 64.804688 107.148438 64.652344 106.574219 64.75 105.972656 C 64.898438 105.058594 65.851562 104.339844 66.910156 104.339844 L 68.683594 104.339844 L 68.683594 108.300781 Z M 76.605469 128.109375 C 76.605469 129.199219 75.714844 130.089844 74.625 130.089844 C 73.535156 130.089844 72.644531 129.199219 72.644531 128.109375 L 72.644531 120.1875 L 76.605469 120.1875 Z M 76.605469 92.453125 L 72.644531 92.453125 L 72.644531 88.492188 L 76.605469 88.492188 Z M 90.472656 88.492188 C 91.050781 88.492188 91.609375 88.746094 91.980469 89.1875 C 92.367188 89.644531 92.523438 90.21875 92.421875 90.820312 C 92.273438 91.734375 91.324219 92.453125 90.261719 92.453125 L 80.566406 92.453125 L 80.566406 88.492188 Z M 58.988281 92.453125 C 57.925781 92.453125 56.976562 91.734375 56.828125 90.820312 C 56.726562 90.21875 56.882812 89.644531 57.269531 89.1875 C 57.640625 88.746094 58.199219 88.492188 58.777344 88.492188 L 68.683594 88.492188 L 68.683594 92.453125 Z M 42.929688 84.53125 C 40.230469 84.53125 37.699219 83.460938 35.820312 81.519531 C 33.9375 79.585938 32.949219 77.023438 33.035156 74.316406 C 33.1875 69.023438 37.855469 64.71875 43.433594 64.71875 L 56.796875 64.71875 C 57.886719 64.71875 58.777344 65.609375 58.777344 66.703125 C 58.777344 67.792969 57.886719 68.683594 56.796875 68.683594 L 43.140625 68.683594 C 40.144531 68.683594 37.53125 70.816406 37.066406 73.640625 C 36.785156 75.382812 37.273438 77.140625 38.402344 78.472656 C 39.535156 79.800781 41.183594 80.566406 42.929688 80.566406 L 49.277344 80.566406 C 48.070312 81.707031 47.070312 83.050781 46.328125 84.53125 Z M 71.660156 30.21875 C 69.796875 29.125 68.683594 27.222656 68.683594 25.101562 C 68.683594 21.820312 71.34375 19.160156 74.625 19.160156 C 77.90625 19.160156 80.566406 21.820312 80.566406 25.101562 C 80.566406 27.222656 79.453125 29.125 77.589844 30.21875 C 76.984375 30.574219 76.605469 31.222656 76.605469 31.925781 L 76.605469 76.605469 L 72.644531 76.605469 L 72.644531 31.925781 C 72.644531 31.222656 72.265625 30.574219 71.660156 30.21875 Z M 105.816406 60.757812 L 92.453125 60.757812 C 89.171875 60.757812 86.511719 63.421875 86.511719 66.703125 C 86.511719 69.980469 89.171875 72.644531 92.453125 72.644531 L 106.109375 72.644531 C 107.171875 72.644531 108.121094 73.363281 108.269531 74.277344 C 108.371094 74.878906 108.214844 75.453125 107.828125 75.910156 C 107.457031 76.351562 106.898438 76.605469 106.320312 76.605469 L 80.566406 76.605469 L 80.566406 32.988281 C 83.035156 31.121094 84.53125 28.199219 84.53125 25.101562 C 84.53125 19.640625 80.089844 15.199219 74.625 15.199219 C 69.160156 15.199219 64.71875 19.640625 64.71875 25.101562 C 64.71875 28.199219 66.214844 31.121094 68.683594 32.988281 L 68.683594 76.605469 L 42.929688 76.605469 C 42.351562 76.605469 41.792969 76.351562 41.421875 75.910156 C 41.035156 75.453125 40.878906 74.878906 40.980469 74.277344 C 41.128906 73.363281 42.078125 72.644531 43.140625 72.644531 L 56.796875 72.644531 C 60.078125 72.644531 62.738281 69.980469 62.738281 66.703125 C 62.738281 63.421875 60.078125 60.757812 56.796875 60.757812 L 43.433594 60.757812 C 35.734375 60.757812 29.296875 66.785156 29.070312 74.199219 C 28.957031 77.984375 30.339844 81.566406 32.980469 84.28125 C 35.609375 86.996094 39.148438 88.492188 42.929688 88.492188 L 45.066406 88.492188 C 44.988281 89.003906 44.933594 89.519531 44.917969 90.046875 C 44.742188 95.78125 48.085938 100.902344 53.214844 103.140625 C 52.945312 104.308594 52.804688 105.515625 52.84375 106.746094 C 53.066406 114.15625 59.503906 120.1875 67.203125 120.1875 L 68.683594 120.1875 L 68.683594 128.109375 C 68.683594 131.390625 71.34375 134.050781 74.625 134.050781 C 77.90625 134.050781 80.566406 131.390625 80.566406 128.109375 L 80.566406 120.1875 L 82.046875 120.1875 C 89.746094 120.1875 96.183594 114.15625 96.40625 106.746094 C 96.445312 105.53125 96.304688 104.339844 96.035156 103.171875 C 97.660156 102.457031 99.152344 101.4375 100.421875 100.128906 C 103.054688 97.414062 104.445312 93.832031 104.332031 90.046875 C 104.316406 89.527344 104.238281 89.007812 104.160156 88.492188 L 106.320312 88.492188 C 110.101562 88.492188 113.640625 86.996094 116.269531 84.28125 C 118.902344 81.566406 120.292969 77.984375 120.179688 74.199219 C 119.953125 66.785156 113.515625 60.757812 105.816406 60.757812 " fill-opacity="1" fill-rule="nonzero"/></g></svg>